<?xml version="1.0" encoding="UTF-8" standalone="no"?>
<!DOCTYPE svg PUBLIC "-//W3C//DTD SVG 1.1//EN"
 "http://www.w3.org/Graphics/SVG/1.1/DTD/svg11.dtd">
<!-- Generated by graphviz version 7.0.4 (20221203.1631)
 -->
<!-- Title: structs Pages: 1 -->
<svg width="1144pt" height="134pt"
 viewBox="0.00 0.00 1144.00 134.00" xmlns="http://www.w3.org/2000/svg" xmlns:xlink="http://www.w3.org/1999/xlink">
<g id="graph0" class="graph" transform="scale(1 1) rotate(0) translate(4 130)">
<title>structs</title>
<polygon fill="white" stroke="none" points="-4,4 -4,-130 1140,-130 1140,4 -4,4"/>
<!-- Cable batterie Souriau Output -->
<g id="node1" class="node">
<title>Cable batterie Souriau Output</title>
<g id="a_node1"><a xlink:title="{&#39;Vin cable batterie output&#39;: {&#39;Nom&#39;: &#39;Vin cable batterie output&#39;, &#39;Label&#39;: &#39;Vin Batt&#39;, &#39;Couleur&#39;: &#39;red&#39;, &#39;Numero&#39;: 1, &#39;Position&#39;: &#39;A&#39;, &#39;x_pos&#39;: 1, &#39;y_pos&#39;: 1, &#39;PinType&#39;: &#39;Pin molex femelle&#39;, &#39;Reference Fabricant&#39;: None, &#39;Reference Interne&#39;: None}, &#39;GND cable batterie output&#39;: {&#39;Nom&#39;: &#39;GND cable batterie output&#39;, &#39;Label&#39;: &#39;GND&#39;, &#39;Couleur&#39;: &#39;black&#39;, &#39;Numero&#39;: 6, &#39;Position&#39;: &#39;F&#39;, &#39;x_pos&#39;: 3, &#39;y_pos&#39;: 2, &#39;PinType&#39;: &#39;Pin molex femelle&#39;, &#39;Reference Fabricant&#39;: None, &#39;Reference Interne&#39;: None}}">
<polygon fill="none" stroke="black" points="166,-79.5 166,-125.5 330,-125.5 330,-79.5 166,-79.5"/>
<text text-anchor="middle" x="235" y="-98.8" font-family="Times New Roman,serif" font-size="14.00">Connecteur Souriau 6</text>
<polyline fill="none" stroke="black" points="304,-79.5 304,-125.5"/>
<text text-anchor="middle" x="317" y="-110.3" font-family="Times New Roman,serif" font-size="14.00">A</text>
<polyline fill="none" stroke="black" points="304,-102.5 330,-102.5"/>
<text text-anchor="middle" x="317" y="-87.3" font-family="Times New Roman,serif" font-size="14.00">F</text>
</a>
</g>
<text text-anchor="middle" x="83" y="-67.8" font-family="Times New Roman,serif" font-size="14.00">Cable batterie Souriau Output</text>
</g>
<!-- interface_Cable batterie Souriau Output -->
<g id="node2" class="node">
<title>interface_Cable batterie Souriau Output</title>
<polygon fill="none" stroke="black" points="412,-84.5 412,-120.5 733,-120.5 733,-84.5 412,-84.5"/>
<text text-anchor="middle" x="572.5" y="-98.8" font-family="Times New Roman,serif" font-size="14.00">MANCHON THERMO DE TERMINAISON CABLE</text>
</g>
<!-- Cable batterie Souriau Output&#45;&gt;interface_Cable batterie Souriau Output -->
<g id="edge1" class="edge">
<title>Cable batterie Souriau Output:subnode&#45;&gt;interface_Cable batterie Souriau Output</title>
<path fill="none" stroke="red" d="M329.63,-102.5C351.55,-102.5 376.08,-102.5 400.9,-102.5"/>
<polygon fill="red" stroke="red" points="400.8,-106 410.8,-102.5 400.8,-99 400.8,-106"/>
<text text-anchor="middle" x="371" y="-106.3" font-family="Times New Roman,serif" font-size="14.00">Vin Batt</text>
</g>
<!-- Cable batterie Souriau Output&#45;&gt;interface_Cable batterie Souriau Output -->
<g id="edge2" class="edge">
<title>Cable batterie Souriau Output:subnode&#45;&gt;interface_Cable batterie Souriau Output</title>
<path fill="none" stroke="black" d="M329.95,-85.65C336.04,-84.79 342.11,-84.05 348,-83.5 378.3,-80.65 410.93,-81.31 441.64,-83.6"/>
<polygon fill="black" stroke="black" points="441.1,-87.07 451.35,-84.39 441.67,-80.09 441.1,-87.07"/>
<text text-anchor="middle" x="371" y="-87.3" font-family="Times New Roman,serif" font-size="14.00">GND</text>
</g>
<!-- interface_Cable batterie XT60 Input -->
<g id="node4" class="node">
<title>interface_Cable batterie XT60 Input</title>
<polygon fill="none" stroke="black" points="815,-54.5 815,-90.5 1136,-90.5 1136,-54.5 815,-54.5"/>
<text text-anchor="middle" x="975.5" y="-68.8" font-family="Times New Roman,serif" font-size="14.00">MANCHON THERMO DE TERMINAISON CABLE</text>
</g>
<!-- interface_Cable batterie Souriau Output&#45;&gt;interface_Cable batterie XT60 Input -->
<g id="edge5" class="edge">
<title>interface_Cable batterie Souriau Output&#45;&gt;interface_Cable batterie XT60 Input</title>
<path fill="none" stroke="black" d="M732.87,-93.05C754.43,-91.62 776.26,-90.08 797,-88.5 799.35,-88.32 801.72,-88.14 804.1,-87.95"/>
<polygon fill="black" stroke="black" points="804.14,-91.46 813.83,-87.18 803.58,-84.48 804.14,-91.46"/>
</g>
<!-- Cable batterie XT60 Input -->
<g id="node3" class="node">
<title>Cable batterie XT60 Input</title>
<g id="a_node3"><a xlink:title="{&#39;Vin cable batterie input&#39;: {&#39;Nom&#39;: &#39;Vin cable batterie input&#39;, &#39;Label&#39;: &#39;Vin Batt&#39;, &#39;Couleur&#39;: &#39;red&#39;, &#39;Numero&#39;: 1, &#39;Position&#39;: &#39;+&#39;, &#39;x_pos&#39;: 1, &#39;y_pos&#39;: 1, &#39;PinType&#39;: &#39;Pin banane male&#39;, &#39;Reference Fabricant&#39;: None, &#39;Reference Interne&#39;: None}, &#39;GND cable batterie input&#39;: {&#39;Nom&#39;: &#39;GND cable batterie input&#39;, &#39;Label&#39;: &#39;GND&#39;, &#39;Couleur&#39;: &#39;black&#39;, &#39;Numero&#39;: 2, &#39;Position&#39;: &#39;&#45;&#39;, &#39;x_pos&#39;: 1, &#39;y_pos&#39;: 2, &#39;PinType&#39;: &#39;Pin banane male&#39;, &#39;Reference Fabricant&#39;: None, &#39;Reference Interne&#39;: None}}">
<polygon fill="none" stroke="black" points="463.5,-15.5 463.5,-61.5 681.5,-61.5 681.5,-15.5 463.5,-15.5"/>
<text text-anchor="middle" x="560" y="-34.8" font-family="Times New Roman,serif" font-size="14.00">Connecteur de puissance XT60</text>
<polyline fill="none" stroke="black" points="656.5,-15.5 656.5,-61.5"/>
<text text-anchor="middle" x="669" y="-46.3" font-family="Times New Roman,serif" font-size="14.00">+</text>
<polyline fill="none" stroke="black" points="656.5,-38.5 681.5,-38.5"/>
<text text-anchor="middle" x="669" y="-23.3" font-family="Times New Roman,serif" font-size="14.00">&#45;</text>
</a>
</g>
<text text-anchor="middle" x="390.5" y="-3.8" font-family="Times New Roman,serif" font-size="14.00">Cable batterie XT60 Input</text>
</g>
<!-- Cable batterie XT60 Input&#45;&gt;interface_Cable batterie XT60 Input -->
<g id="edge3" class="edge">
<title>Cable batterie XT60 Input:subnode&#45;&gt;interface_Cable batterie XT60 Input</title>
<path fill="none" stroke="red" d="M681.29,-47.7C718.99,-50.89 762.21,-54.55 803.69,-58.05"/>
<polygon fill="red" stroke="red" points="803.28,-61.53 813.54,-58.89 803.87,-54.56 803.28,-61.53"/>
<text text-anchor="middle" x="774" y="-61.3" font-family="Times New Roman,serif" font-size="14.00">Vin Batt</text>
</g>
<!-- Cable batterie XT60 Input&#45;&gt;interface_Cable batterie XT60 Input -->
<g id="edge4" class="edge">
<title>Cable batterie XT60 Input:subnode&#45;&gt;interface_Cable batterie XT60 Input</title>
<path fill="none" stroke="black" d="M681.49,-31.97C718.26,-31.12 759.49,-31.63 797,-35.5 829.07,-38.81 863.89,-45.39 894.13,-52.1"/>
<polygon fill="black" stroke="black" points="893.05,-55.44 903.57,-54.24 894.59,-48.62 893.05,-55.44"/>
<text text-anchor="middle" x="774" y="-39.3" font-family="Times New Roman,serif" font-size="14.00">GND</text>
</g>
</g>
</svg>
